<?xml version="1.0" standalone="no"?>
<!DOCTYPE svg PUBLIC "-//W3C//DTD SVG 20010904//EN"
 "http://www.w3.org/TR/2001/REC-SVG-20010904/DTD/svg10.dtd">
<svg version="1.0" xmlns="http://www.w3.org/2000/svg"
 width="1536.000000pt" height="1024.000000pt" viewBox="0 0 1536.000000 1024.000000"
 preserveAspectRatio="xMidYMid meet">

<g transform="translate(0.000000,1024.000000) scale(0.100000,-0.100000)"
fill="#000000" stroke="none">
<path d="M3135 7256 c-27 -18 -201 -121 -385 -229 -184 -108 -462 -272 -618
-365 l-283 -170 1 -753 c0 -414 3 -763 6 -776 4 -13 20 -31 38 -40 59 -30 394
-227 931 -548 176 -105 336 -199 355 -209 l36 -18 144 87 c80 48 190 114 245
148 241 146 826 493 890 528 l70 38 2 773 3 773 -78 43 c-107 59 -156 87 -317
185 -135 82 -603 357 -848 499 -65 37 -123 68 -130 67 -7 0 -34 -15 -62 -33z
m247 -357 c298 -175 698 -415 818 -492 l115 -73 3 -142 c1 -78 0 -142 -3 -142
-13 0 -112 54 -247 136 -294 178 -398 239 -573 339 -99 56 -205 116 -236 133
l-57 30 -188 -107 c-104 -59 -274 -161 -378 -225 -104 -65 -208 -127 -232
-139 l-44 -21 0 -112 0 -112 133 -80 c155 -94 486 -284 677 -390 74 -41 184
-102 243 -136 l109 -60 -27 -22 c-39 -31 -224 -134 -241 -134 -8 0 -101 51
-207 114 -106 63 -325 190 -487 283 -162 94 -332 192 -377 219 l-82 49 -1 266
0 266 25 11 c14 6 91 53 172 103 154 96 282 172 518 307 77 45 194 114 260
156 66 41 123 75 127 75 4 1 85 -45 180 -100z m-124 -528 c38 -26 291 -177
522 -311 211 -122 417 -245 492 -294 l48 -31 0 -135 c0 -74 -3 -219 -7 -322
l-6 -188 -196 -116 c-446 -266 -564 -336 -724 -428 l-168 -97 -167 94 c-92 51
-239 135 -327 186 -88 51 -207 120 -265 154 -204 118 -325 190 -342 205 -16
13 -18 37 -18 219 0 113 3 203 8 201 98 -45 259 -138 647 -373 380 -231 414
-252 460 -276 l42 -22 79 43 c43 24 122 71 174 105 196 128 293 187 321 197
l29 10 0 104 0 104 -37 19 c-21 10 -112 63 -203 116 -91 54 -181 106 -200 117
-19 11 -147 86 -285 167 -137 81 -292 172 -342 202 -51 29 -93 56 -93 60 0 15
494 307 523 309 5 0 21 -8 35 -19z"/>
<path d="M5527 6799 c-75 -17 -147 -71 -179 -133 -30 -56 -34 -166 -9 -221 37
-83 84 -113 265 -171 139 -45 176 -72 176 -129 0 -112 -197 -155 -277 -61 -16
18 -33 41 -38 51 -9 15 -20 16 -88 10 -89 -8 -90 -11 -53 -90 27 -59 90 -119
155 -148 68 -30 224 -29 303 2 83 32 151 109 167 189 34 156 -46 264 -234 317
-138 38 -185 57 -205 82 -66 85 56 192 174 153 20 -6 51 -29 69 -50 l33 -39
65 9 c35 5 68 10 72 10 14 0 -4 61 -28 100 -65 102 -222 153 -368 119z"/>
<path d="M6353 6802 l-313 -2 0 -80 0 -80 115 0 115 0 0 -375 0 -375 90 0 90
0 0 375 0 375 121 0 121 0 -7 78 c-4 42 -10 79 -13 82 -4 3 -148 4 -319 2z"/>
<path d="M8732 6790 c-93 -33 -138 -73 -180 -160 -26 -54 -27 -57 -27 -275 0
-186 3 -228 18 -271 25 -72 76 -127 153 -165 62 -31 72 -33 178 -33 106 -1
115 1 177 31 90 45 144 115 162 211 l7 32 -90 0 c-85 0 -91 -1 -99 -22 -10
-26 -55 -70 -88 -87 -39 -20 -126 -14 -163 12 -63 42 -74 75 -78 233 -2 77 1
171 7 209 9 58 16 74 45 104 33 33 41 36 106 39 64 4 73 2 106 -23 20 -15 45
-47 56 -71 l19 -44 83 0 83 0 -7 43 c-26 160 -157 258 -344 256 -42 0 -92 -8
-124 -19z"/>
<path d="M6820 6345 l0 -455 90 0 90 0 0 165 0 165 63 0 62 0 79 -165 79 -165
104 0 104 0 -29 53 c-64 113 -162 295 -162 300 0 2 10 7 23 11 38 9 96 66 124
120 22 42 27 65 27 131 1 68 -3 89 -27 137 -16 32 -47 73 -70 93 -66 56 -111
65 -349 65 l-208 0 0 -455z m410 280 c66 -34 87 -104 51 -173 -29 -56 -52 -65
-173 -70 l-108 -5 0 132 0 131 100 0 c70 0 110 -5 130 -15z"/>
<path d="M7642 6453 l3 -348 27 -51 c68 -129 212 -191 385 -165 88 13 143 39
201 94 78 76 82 98 82 482 l0 335 -90 0 -90 0 0 -325 c0 -309 -1 -328 -21
-366 -25 -50 -66 -69 -146 -69 -67 0 -117 21 -147 63 -20 27 -21 43 -24 363
l-3 334 -90 0 -90 0 3 -347z"/>
<path d="M9320 6720 l0 -80 115 0 115 0 0 -375 0 -375 90 0 90 0 0 375 0 375
115 0 115 0 0 80 0 80 -320 0 -320 0 0 -80z"/>
<path d="M10090 6487 c0 -349 6 -395 62 -473 59 -82 164 -129 295 -133 153 -4
282 68 335 186 16 37 18 75 21 387 l2 346 -87 0 -87 0 -3 -322 c-3 -302 -4
-325 -23 -357 -34 -58 -67 -75 -148 -79 -86 -4 -131 15 -162 68 -19 33 -20 54
-23 363 l-3 327 -90 0 -89 0 0 -313z"/>
<path d="M11000 6345 l0 -455 90 0 90 0 0 165 0 165 63 0 62 -1 79 -164 80
-165 104 0 104 0 -25 43 c-54 92 -167 300 -167 306 1 3 20 15 43 27 50 24 102
88 119 147 34 115 -9 263 -95 327 -71 52 -117 60 -344 60 l-203 0 0 -455z
m392 286 c13 -5 35 -21 51 -36 22 -23 27 -36 27 -80 0 -98 -54 -135 -200 -135
l-90 0 0 130 0 130 94 0 c52 0 105 -4 118 -9z"/>
<path d="M11830 6345 l0 -455 290 0 290 0 0 80 0 80 -200 0 -200 0 0 105 0
105 165 0 165 0 0 64 c0 102 11 96 -171 96 l-159 0 0 108 0 107 197 0 198 0 3
83 3 82 -291 0 -290 0 0 -455z"/>
<path d="M12580 6345 l0 -455 173 0 c94 0 201 5 237 11 112 18 206 85 253 179
20 41 22 62 25 243 4 193 3 199 -23 267 -36 93 -107 161 -202 190 -56 17 -93
20 -264 20 l-199 0 0 -455z m450 266 c48 -34 55 -62 58 -257 3 -159 1 -186
-15 -220 -33 -68 -58 -79 -194 -82 l-119 -4 0 291 0 290 103 3 c120 4 134 2
167 -21z"/>
<path d="M7000 5641 c-77 -24 -139 -72 -173 -136 -21 -38 -22 -54 -22 -260 l0
-220 27 -45 c45 -77 115 -123 213 -141 103 -19 242 24 299 92 47 55 56 92 56
220 l0 119 -145 0 -145 0 0 -65 0 -65 76 0 77 0 -6 -40 c-10 -75 -51 -116
-129 -126 -61 -8 -130 21 -155 68 -28 52 -25 330 5 409 22 55 145 79 209 39
32 -19 63 -66 63 -95 0 -12 14 -15 75 -15 l75 0 -6 43 c-21 146 -126 228 -293
226 -42 0 -87 -4 -101 -8z"/>
<path d="M12035 5634 c-55 -19 -109 -66 -143 -122 -27 -46 -27 -50 -30 -242
-3 -131 0 -208 8 -235 48 -161 242 -243 423 -179 60 21 103 59 137 117 29 50
30 57 30 175 l0 123 -141 -3 -141 -3 -2 -63 -1 -62 74 0 74 0 -6 -46 c-11
-101 -120 -152 -224 -105 -70 32 -78 58 -77 251 1 191 10 226 67 253 45 22
109 22 154 0 37 -17 73 -65 73 -95 0 -16 10 -18 74 -18 l75 0 -6 38 c-16 102
-73 176 -165 213 -54 22 -195 24 -253 3z"/>
<path d="M5350 5245 l0 -395 253 0 252 0 -3 70 -4 70 -174 0 -174 0 0 89 0 89
63 7 c34 4 99 5 145 3 l82 -3 0 68 0 67 -144 0 -145 0 2 93 2 92 173 3 172 2
0 70 0 70 -250 0 -250 0 0 -395z"/>
<path d="M6000 5246 l0 -394 23 -4 c12 -2 47 -2 77 0 l55 4 -3 249 c-1 137 1
249 5 249 4 0 15 -13 23 -29 8 -16 78 -128 154 -250 l139 -221 74 0 73 0 0
395 0 395 -75 0 -75 0 -2 -257 -3 -258 -114 190 c-63 105 -134 220 -158 258
l-44 67 -74 0 -75 0 0 -394z"/>
<path d="M7580 5245 l0 -395 80 0 80 0 0 395 0 395 -80 0 -80 0 0 -395z"/>
<path d="M7910 5245 l0 -395 80 0 81 0 -3 250 c-2 138 -1 250 2 250 3 -1 74
-113 159 -250 l155 -250 73 0 73 0 0 395 0 395 -75 0 -75 0 -2 -256 -3 -257
-155 257 -155 256 -77 0 -78 0 0 -395z"/>
<path d="M8710 5246 l0 -395 255 -3 255 -3 0 41 c0 23 -3 56 -6 73 l-6 31
-169 0 -169 0 0 89 0 90 53 6 c28 4 91 5 140 3 l87 -3 0 68 0 67 -140 0 -140
0 0 95 0 95 175 0 176 0 -3 68 -3 67 -252 3 -253 2 0 -394z"/>
<path d="M9367 5633 c-4 -3 -7 -181 -7 -395 l0 -388 255 0 255 0 0 70 0 70
-175 0 -175 0 0 89 0 88 53 7 c28 3 94 6 145 6 l92 0 0 28 c0 15 -3 44 -6 65
l-7 37 -138 0 -139 0 0 95 0 95 170 0 170 0 0 70 0 70 -243 0 c-134 0 -247 -3
-250 -7z"/>
<path d="M10020 5638 c0 -1 -1 -180 -3 -396 l-2 -392 78 0 77 0 0 145 0 145
53 0 54 0 68 -145 69 -145 94 0 94 0 -18 28 c-29 44 -156 273 -152 275 1 1 20
11 40 21 57 29 99 101 106 181 7 92 -11 148 -67 206 -28 28 -62 52 -86 59 -35
11 -405 28 -405 18z m360 -160 c57 -39 64 -118 16 -175 -22 -26 -29 -27 -125
-31 l-101 -4 0 116 0 116 89 0 c75 0 93 -3 121 -22z"/>
<path d="M10730 5245 l0 -395 80 0 80 0 0 395 0 395 -80 0 -80 0 0 -395z"/>
<path d="M11080 5245 l0 -395 75 0 75 0 0 253 0 252 23 -38 c12 -20 83 -134
157 -252 l135 -215 72 0 73 0 0 395 0 395 -75 0 -75 0 -2 -257 -3 -258 -41 70
c-22 39 -85 142 -139 230 -54 88 -105 172 -114 187 -15 26 -20 28 -88 28 l-73
0 0 -395z"/>
<path d="M12814 5616 c-37 -16 -64 -52 -64 -82 0 -32 42 -77 86 -93 55 -20 84
-41 84 -60 0 -46 -67 -56 -104 -16 -14 15 -34 25 -50 25 -24 0 -26 -3 -20 -22
17 -56 66 -82 142 -76 45 4 60 10 79 32 24 29 30 74 13 107 -11 20 -79 59
-104 59 -8 0 -26 10 -40 23 -23 20 -24 24 -11 41 18 23 70 24 94 2 19 -18 71
-22 71 -6 0 5 -12 23 -27 40 -34 37 -100 48 -149 26z"/>
<path d="M13080 5461 l0 -171 35 0 35 0 0 59 c0 51 3 61 20 66 28 9 34 3 61
-65 23 -59 25 -60 61 -60 21 0 38 2 38 3 0 2 -14 31 -30 64 l-31 61 31 30 c48
48 38 135 -19 162 -14 7 -65 15 -113 18 l-88 4 0 -171z m161 99 c11 -6 19 -21
19 -35 0 -29 -26 -45 -74 -45 -36 0 -36 0 -36 45 0 45 0 45 36 45 19 0 44 -5
55 -10z"/>
<path d="M12758 5010 l-3 -160 103 0 102 0 0 30 0 30 -65 0 -65 0 0 130 0 130
-35 0 -34 0 -3 -160z"/>
<path d="M7646 3795 c-88 -33 -110 -76 -104 -204 4 -111 20 -147 78 -180 77
-43 175 -18 217 55 30 52 32 188 4 250 -33 72 -120 107 -195 79z m99 -49 c44
-19 65 -61 71 -142 8 -104 -38 -165 -121 -160 -76 4 -115 60 -115 164 0 59 23
108 62 132 39 24 57 25 103 6z"/>
<path d="M10312 3619 c3 -187 4 -191 27 -210 13 -10 34 -19 47 -19 34 0 35 47
2 52 -23 3 -23 5 -26 186 l-2 182 -26 0 -26 0 4 -191z"/>
<path d="M10690 3788 c-73 -37 -90 -73 -90 -188 0 -84 3 -101 23 -130 33 -49
66 -70 124 -76 42 -5 58 -2 93 17 40 23 87 89 73 103 -15 14 -40 4 -56 -24
-39 -65 -153 -63 -192 2 -28 49 -28 176 1 215 44 60 153 64 190 8 16 -25 48
-33 58 -16 10 15 -46 73 -89 92 -53 24 -82 24 -135 -3z"/>
<path d="M1860 3595 l0 -205 125 0 125 0 0 25 0 25 -100 0 -100 0 0 71 0 71
85 -7 85 -7 0 26 0 26 -85 0 -85 0 0 65 0 65 83 1 c45 1 88 1 95 0 7 -1 12 9
12 24 l0 25 -120 0 -120 0 0 -205z"/>
<path d="M2800 3765 c0 -31 3 -35 25 -35 22 0 25 4 25 35 0 31 -3 35 -25 35
-22 0 -25 -4 -25 -35z"/>
<path d="M4054 3786 c-10 -26 1 -51 24 -54 19 -3 22 1 22 32 0 30 -4 36 -20
36 -11 0 -23 -6 -26 -14z"/>
<path d="M5006 3785 c-42 -22 -55 -44 -56 -93 0 -56 26 -82 111 -111 91 -30
111 -46 107 -84 -2 -26 -11 -36 -41 -50 -33 -17 -42 -17 -80 -5 -28 9 -46 22
-55 41 -14 28 -27 33 -51 18 -12 -8 -11 -14 5 -41 64 -109 274 -84 274 33 0
64 -23 85 -158 142 -98 42 -85 115 20 115 39 0 54 -5 74 -25 37 -37 68 -19 44
26 -25 46 -134 65 -194 34z"/>
<path d="M9260 3765 c0 -32 3 -36 23 -33 17 2 22 10 22 33 0 23 -5 31 -22 33
-20 3 -23 -1 -23 -33z"/>
<path d="M11820 3765 c0 -31 3 -35 25 -35 22 0 25 4 25 35 0 31 -3 35 -25 35
-22 0 -25 -4 -25 -35z"/>
<path d="M12600 3765 c0 -31 3 -35 25 -35 22 0 25 4 25 35 0 31 -3 35 -25 35
-22 0 -25 -4 -25 -35z"/>
<path d="M5313 3763 c-8 -2 -13 -22 -13 -44 0 -35 -3 -39 -25 -39 -18 0 -25
-5 -25 -20 0 -14 7 -20 24 -20 24 0 24 -1 28 -111 3 -96 6 -113 22 -125 27
-19 82 -18 90 2 11 27 7 33 -26 36 l-33 3 -3 98 -3 97 34 0 c26 0 36 5 40 20
4 17 0 20 -34 20 l-39 0 0 45 c0 44 -6 51 -37 38z"/>
<path d="M6328 3762 c-14 -3 -18 -13 -18 -43 0 -37 -2 -39 -30 -39 -23 0 -30
-4 -30 -20 0 -16 7 -20 30 -20 l30 0 0 -109 c0 -79 4 -112 13 -120 18 -14 72
-25 91 -18 23 9 8 47 -18 47 -38 0 -46 19 -46 112 l0 88 40 0 c33 0 40 3 40
20 0 17 -7 20 -39 20 -40 0 -40 0 -43 43 -2 34 -6 42 -20 39z"/>
<path d="M9080 3720 c0 -38 -2 -40 -30 -40 -23 0 -30 -4 -30 -20 0 -16 7 -20
30 -20 l30 0 0 -109 c0 -124 4 -130 75 -139 43 -4 45 -3 45 21 0 22 -5 26 -32
29 l-33 3 -3 98 -3 97 36 0 c28 0 35 4 35 20 0 16 -7 20 -35 20 -34 0 -35 1
-35 40 0 36 -2 40 -25 40 -22 0 -25 -4 -25 -40z"/>
<path d="M11647 3753 c-4 -3 -7 -21 -7 -40 0 -29 -3 -33 -25 -33 -18 0 -25 -5
-25 -20 0 -15 7 -20 25 -20 l25 0 0 -109 c0 -102 2 -111 22 -125 12 -9 40 -16
61 -16 34 0 38 3 35 23 -2 14 -10 22 -23 23 -11 1 -26 2 -32 3 -10 1 -13 28
-13 101 l0 100 35 0 c28 0 35 4 35 20 0 16 -7 20 -35 20 -34 0 -35 1 -35 40 0
32 -4 40 -18 40 -10 0 -22 -3 -25 -7z"/>
<path d="M12760 3720 c0 -36 -2 -40 -25 -40 -18 0 -25 -5 -25 -20 0 -15 7 -20
25 -20 l25 0 0 -109 c0 -102 2 -111 22 -125 12 -9 37 -16 55 -16 28 0 33 4 33
24 0 19 -5 24 -25 24 -14 0 -29 3 -33 6 -4 4 -7 49 -7 99 l0 92 35 5 c23 3 36
11 38 23 2 14 -5 17 -39 17 l-41 0 4 40 c3 36 1 40 -19 40 -20 0 -23 -5 -23
-40z"/>
<path d="M2524 3671 c-37 -23 -54 -65 -54 -135 0 -71 25 -117 74 -135 35 -13
44 -13 84 1 l44 16 -5 -41 c-3 -23 -14 -47 -23 -54 -27 -20 -78 -16 -99 7 -21
23 -55 27 -55 6 0 -8 8 -24 18 -36 25 -31 112 -40 157 -16 46 25 55 67 55 245
0 142 -1 151 -19 151 -11 0 -21 -6 -24 -12 -3 -10 -7 -10 -19 -1 -28 24 -100
26 -134 4z m128 -48 c14 -12 18 -31 18 -77 0 -80 -17 -106 -71 -106 -59 0 -79
25 -79 100 0 47 4 64 20 80 25 25 86 27 112 3z"/>
<path d="M3304 3676 c-18 -8 -38 -29 -47 -49 -21 -43 -22 -126 -3 -172 33 -77
165 -89 211 -19 13 21 13 24 -3 33 -12 7 -22 5 -37 -9 -11 -10 -35 -21 -53
-25 -26 -4 -38 0 -57 19 -14 14 -25 35 -25 48 0 22 3 23 83 23 45 0 87 3 94 8
7 5 10 25 7 50 -8 80 -94 128 -170 93z m106 -56 c38 -38 27 -50 -50 -50 -56 0
-70 3 -70 15 0 25 38 55 70 55 17 0 39 -9 50 -20z"/>
<path d="M3601 3677 c-42 -21 -64 -71 -62 -139 3 -101 44 -148 130 -148 63 0
130 67 84 84 -11 5 -23 -1 -34 -16 -36 -46 -123 -19 -131 41 -3 24 -2 25 80
24 114 -1 129 14 93 94 -30 64 -100 91 -160 60z m101 -54 c8 -10 18 -26 21
-35 6 -16 -1 -18 -68 -18 -41 0 -75 4 -75 9 0 4 9 20 21 35 25 31 77 36 101 9z"/>
<path d="M3928 3670 c-31 -24 -42 -26 -34 -5 4 11 -2 15 -26 15 -30 0 -30 -1
-24 -37 3 -21 6 -86 6 -145 l0 -108 25 0 c25 0 25 0 25 98 0 113 11 139 63
144 27 2 32 7 32 28 0 33 -32 38 -67 10z"/>
<path d="M4544 3671 c-42 -26 -57 -67 -52 -146 5 -79 28 -116 82 -128 42 -10
78 -4 100 19 15 14 16 12 16 -25 0 -74 -74 -109 -127 -59 -18 17 -27 19 -45
11 l-23 -10 32 -31 c27 -28 39 -32 83 -32 61 0 102 19 118 55 8 17 12 84 12
190 0 156 -1 165 -19 165 -11 0 -21 -5 -23 -11 -2 -6 -14 -5 -33 5 -40 21 -83
20 -121 -3z m128 -48 c24 -21 25 -128 2 -161 -21 -31 -85 -31 -114 0 -33 36
-25 145 14 170 20 14 79 8 98 -9z"/>
<path d="M5556 3669 c-21 -17 -26 -18 -26 -5 0 10 -9 16 -25 16 l-25 0 0 -145
0 -145 28 0 28 0 1 101 c1 112 12 137 65 141 29 2 41 19 32 43 -9 21 -47 19
-78 -6z"/>
<path d="M6038 3674 c-39 -20 -58 -64 -58 -129 0 -113 48 -163 144 -151 51 5
96 39 96 70 0 27 -33 28 -54 2 -27 -31 -59 -40 -88 -25 -38 20 -47 41 -48 101
0 46 4 61 22 78 28 26 79 26 103 0 10 -11 29 -20 42 -20 l25 0 -19 32 c-11 18
-30 39 -44 45 -32 17 -88 16 -121 -3z"/>
<path d="M6886 3669 c-21 -17 -26 -18 -26 -5 0 10 -9 16 -25 16 l-25 0 0 -145
0 -145 25 0 c25 0 25 0 25 96 0 52 5 104 10 114 6 11 28 24 50 30 33 9 40 15
40 35 0 32 -36 34 -74 4z"/>
<path d="M7058 3679 c-43 -17 -68 -67 -68 -138 0 -102 39 -151 118 -151 76 0
148 56 103 80 -16 8 -25 5 -45 -15 -14 -14 -36 -25 -49 -25 -36 0 -77 36 -77
68 l0 27 93 0 92 0 -3 50 c-2 39 -8 56 -31 78 -31 32 -89 43 -133 26z m106
-61 c29 -41 21 -48 -54 -48 -59 0 -70 3 -70 17 0 51 94 75 124 31z"/>
<path d="M8033 3678 c-13 -6 -23 -15 -23 -20 0 -4 -4 -8 -10 -8 -5 0 -10 7
-10 15 0 9 -10 15 -26 15 -20 0 -25 -4 -20 -16 3 -9 6 -101 6 -205 l0 -189 25
0 c24 0 25 2 25 74 l0 75 28 -15 c114 -59 204 57 161 209 -17 63 -94 95 -156
65z m97 -65 c18 -23 21 -38 18 -86 -5 -70 -23 -91 -75 -90 -52 2 -73 30 -73
98 0 68 26 105 75 105 25 0 39 -7 55 -27z"/>
<path d="M8323 3675 c-48 -21 -66 -64 -61 -151 4 -91 29 -123 100 -131 79 -9
169 50 118 77 -17 9 -24 7 -38 -9 -42 -51 -132 -24 -132 40 l0 29 84 -4 c47
-2 90 0 97 4 8 5 9 20 5 45 -11 58 -26 83 -61 100 -40 18 -70 19 -112 0z m109
-52 c10 -9 18 -24 18 -35 0 -16 -9 -18 -70 -18 -63 0 -70 2 -70 19 0 44 85 68
122 34z"/>
<path d="M8646 3669 c-21 -17 -26 -18 -26 -5 0 10 -9 16 -25 16 l-25 0 0 -145
0 -145 24 0 c24 0 24 2 28 99 3 109 17 137 67 143 20 2 27 9 29 31 3 23 0 27
-21 27 -13 0 -36 -9 -51 -21z"/>
<path d="M8814 3676 c-28 -13 -44 -33 -44 -57 0 -15 36 -10 50 6 17 21 73 19
93 -3 26 -29 21 -52 -10 -53 -104 -4 -137 -25 -141 -91 -3 -40 1 -49 24 -67
29 -23 92 -28 125 -11 13 7 19 7 19 0 0 -5 13 -10 29 -10 29 0 29 1 20 32 -5
18 -9 73 -9 121 0 101 -7 121 -51 136 -41 14 -67 13 -105 -3z m112 -182 c-4
-58 -56 -82 -104 -48 -50 35 -7 77 85 83 20 1 22 -3 19 -35z"/>
<path d="M9444 3676 c-56 -25 -79 -116 -53 -209 13 -47 57 -77 114 -77 83 0
125 51 125 152 0 74 -15 105 -62 129 -43 22 -81 24 -124 5z m116 -56 c15 -15
20 -33 20 -76 0 -64 -12 -91 -46 -104 -28 -11 -71 2 -90 28 -22 28 -17 115 7
146 26 33 79 36 109 6z"/>
<path d="M9807 3680 c-16 -5 -35 -14 -43 -21 -11 -9 -14 -8 -14 5 0 10 -9 16
-25 16 l-26 0 2 -145 2 -145 23 0 c23 0 24 2 24 89 0 90 11 139 33 153 7 4 26
8 44 8 51 0 63 -27 63 -147 0 -94 2 -103 19 -103 15 0 19 11 24 68 15 152 3
201 -54 221 -36 12 -34 12 -72 1z"/>
<path d="M10078 3683 c-28 -4 -58 -36 -58 -60 0 -18 38 -16 56 2 33 32 104 11
104 -30 0 -21 -5 -25 -27 -25 -54 0 -102 -13 -122 -32 -28 -26 -29 -98 -1
-123 26 -23 104 -32 127 -14 13 11 17 11 20 2 3 -7 16 -13 29 -13 24 0 24 0
24 116 0 63 -5 124 -10 135 -21 39 -69 53 -142 42z m102 -188 c0 -46 -36 -72
-83 -58 -27 7 -32 14 -32 38 0 25 6 32 35 42 19 7 45 12 58 12 19 1 22 -4 22
-34z"/>
<path d="M11043 3675 c-85 -37 -91 -214 -9 -264 64 -40 151 -18 181 45 19 41
18 126 -2 167 -29 58 -103 81 -170 52z m103 -43 c30 -20 43 -92 28 -150 -8
-28 -49 -49 -87 -44 -37 5 -60 43 -61 102 -1 38 4 54 23 74 24 26 72 35 97 18z"/>
<path d="M2170 3535 l0 -145 30 0 30 0 0 108 c0 119 10 142 61 142 51 0 58
-16 61 -135 l3 -110 28 -3 29 -3 -4 119 c-3 111 -5 122 -27 146 -19 21 -34 26
-71 26 -25 0 -55 -7 -68 -16 -20 -14 -22 -14 -22 0 0 10 -9 16 -25 16 l-25 0
0 -145z"/>
<path d="M2800 3535 l0 -145 25 0 25 0 0 145 0 145 -25 0 -25 0 0 -145z"/>
<path d="M2940 3535 l0 -145 25 0 25 0 0 109 c0 102 2 111 22 125 30 21 71 20
91 -2 14 -15 17 -40 17 -125 l0 -107 25 0 25 0 0 120 c0 115 -1 122 -25 145
-19 20 -34 25 -72 25 -28 0 -58 -7 -71 -16 -20 -14 -22 -14 -22 0 0 9 -9 16
-20 16 -19 0 -20 -7 -20 -145z"/>
<path d="M4050 3535 l0 -145 25 0 25 0 0 145 0 145 -25 0 -25 0 0 -145z"/>
<path d="M4190 3535 l0 -145 25 0 25 0 0 105 c0 120 12 145 73 145 52 0 57
-12 57 -137 l0 -113 25 0 25 0 0 120 c0 115 -1 122 -25 145 -28 29 -99 34
-131 10 -25 -19 -34 -19 -34 0 0 8 -9 15 -20 15 -19 0 -20 -7 -20 -145z"/>
<path d="M5680 3564 c0 -114 0 -116 29 -145 34 -33 91 -40 128 -14 19 13 22
13 27 0 3 -8 15 -15 26 -15 19 0 20 6 20 145 l0 145 -25 0 -25 0 0 -103 c0
-123 -9 -142 -66 -140 -56 2 -64 19 -64 140 l0 103 -25 0 -25 0 0 -116z"/>
<path d="M6490 3563 c3 -65 10 -126 14 -136 17 -37 103 -50 144 -21 20 14 22
14 22 0 0 -10 9 -16 25 -16 l25 0 0 145 0 145 -25 0 -25 0 0 -109 c0 -102 -2
-111 -22 -125 -30 -21 -61 -20 -89 2 -20 17 -23 29 -24 103 -4 135 -3 129 -27
129 -23 0 -23 -1 -18 -117z"/>
<path d="M9260 3534 c0 -145 0 -145 23 -142 21 3 22 6 25 146 l3 142 -26 0
-25 0 0 -146z"/>
<path d="M11300 3535 l0 -145 25 0 25 0 0 105 c0 92 3 108 20 125 26 26 74 26
101 -1 20 -20 21 -28 15 -125 l-7 -104 24 0 c24 0 25 3 32 94 9 112 2 149 -32
176 -31 24 -100 27 -129 5 -25 -19 -34 -19 -34 0 0 8 -9 15 -20 15 -19 0 -20
-7 -20 -145z"/>
<path d="M11820 3535 l0 -145 25 0 25 0 0 145 0 145 -25 0 -25 0 0 -145z"/>
<path d="M11960 3535 l0 -145 24 0 c24 0 24 2 28 104 4 120 17 146 74 146 53
0 65 -27 62 -148 l-3 -102 25 0 25 0 3 110 c2 116 -9 161 -43 174 -30 11 -100
6 -122 -9 -19 -13 -22 -13 -27 0 -3 8 -15 15 -26 15 -19 0 -20 -6 -20 -145z"/>
<path d="M12283 3567 c2 -62 9 -123 16 -135 22 -41 92 -54 144 -28 23 13 27
13 27 0 0 -8 9 -14 20 -14 19 0 20 7 20 145 0 136 -1 145 -19 145 -17 0 -20
-11 -26 -110 -8 -122 -15 -134 -72 -134 -54 0 -63 20 -63 141 l0 103 -26 0
-26 0 5 -113z"/>
<path d="M12602 3538 c3 -140 4 -143 26 -146 22 -3 22 -3 22 142 l0 146 -26 0
-25 0 3 -142z"/>
<path d="M12919 3658 c5 -13 30 -78 56 -146 l46 -123 -19 -37 c-14 -27 -26
-37 -43 -37 -17 0 -25 -7 -27 -23 -3 -19 1 -22 30 -22 58 0 72 19 136 192 80
217 81 218 49 218 -23 0 -28 -9 -63 -114 l-37 -114 -30 81 c-16 45 -34 97 -40
115 -8 26 -16 32 -38 32 -25 0 -28 -2 -20 -22z"/>
<path d="M13203 3454 c-11 -30 2 -59 30 -62 25 -3 27 -1 27 31 0 29 -4 35 -26
40 -16 3 -28 0 -31 -9z"/>
<path d="M7310 3425 c0 -31 3 -35 25 -35 22 0 25 4 25 35 0 31 -3 35 -25 35
-22 0 -25 -4 -25 -35z"/>
</g>
</svg>
